<svg width="12" height="12" viewBox="0 0 12 12" fill="none" xmlns="http://www.w3.org/2000/svg">
<path d="M5.99996 0.666748C6.7072 0.666748 7.38548 0.947699 7.88558 1.4478C8.38567 1.94789 8.66663 2.62617 8.66663 3.33341C8.66663 4.04066 8.38567 4.71894 7.88558 5.21903C7.38548 5.71913 6.7072 6.00008 5.99996 6.00008C5.29272 6.00008 4.61444 5.71913 4.11434 5.21903C3.61424 4.71894 3.33329 4.04066 3.33329 3.33341C3.33329 2.62617 3.61424 1.94789 4.11434 1.4478C4.61444 0.947699 5.29272 0.666748 5.99996 0.666748ZM5.99996 2.00008C5.64634 2.00008 5.3072 2.14056 5.05715 2.39061C4.8071 2.64065 4.66663 2.97979 4.66663 3.33341C4.66663 3.68704 4.8071 4.02617 5.05715 4.27622C5.3072 4.52627 5.64634 4.66675 5.99996 4.66675C6.35358 4.66675 6.69272 4.52627 6.94277 4.27622C7.19282 4.02617 7.33329 3.68704 7.33329 3.33341C7.33329 2.97979 7.19282 2.64065 6.94277 2.39061C6.69272 2.14056 6.35358 2.00008 5.99996 2.00008ZM5.99996 6.66675C7.77996 6.66675 11.3333 7.55341 11.3333 9.33341V11.3334H0.666626V9.33341C0.666626 7.55341 4.21996 6.66675 5.99996 6.66675ZM5.99996 7.93341C4.01996 7.93341 1.93329 8.90675 1.93329 9.33341V10.0667H10.0666V9.33341C10.0666 8.90675 7.97996 7.93341 5.99996 7.93341Z" fill="#DBAE84"/>
</svg>
