<svg width="9" height="9" viewBox="0 0 9 9" fill="none" xmlns="http://www.w3.org/2000/svg">
<path d="M5.00986 0.418047C5.13042 0.281488 5.2939 0.204773 5.46437 0.204773C5.63483 0.204773 5.79832 0.281488 5.91888 0.418047L8.81178 3.69598C8.9323 3.83258 9 4.01783 9 4.21098C9 4.40413 8.9323 4.58938 8.81178 4.72598L5.91888 8.00391C5.79763 8.1366 5.63524 8.21002 5.46668 8.20836C5.29813 8.2067 5.13689 8.13009 5.01769 7.99504C4.8985 7.85998 4.83089 7.67728 4.82943 7.48629C4.82796 7.2953 4.89276 7.1113 5.00986 6.97391L6.7501 4.93941H0.642867C0.472368 4.93941 0.308852 4.86266 0.188291 4.72606C0.0677304 4.58945 0 4.40417 0 4.21098C0 4.01779 0.0677304 3.83251 0.188291 3.6959C0.308852 3.55929 0.472368 3.48255 0.642867 3.48255H6.7501L5.00986 1.44805C4.88934 1.31145 4.82164 1.1262 4.82164 0.933047C4.82164 0.739893 4.88934 0.554648 5.00986 0.418047Z" fill="#023E24"/>
</svg>
