<svg width="10" height="9" viewBox="0 0 10 9" fill="none" xmlns="http://www.w3.org/2000/svg">
<path d="M5.46592 0.418108C5.58647 0.281549 5.74996 0.204834 5.92042 0.204834C6.09089 0.204834 6.25438 0.281549 6.37493 0.418108L9.26783 3.69604C9.38835 3.83264 9.45605 4.01789 9.45605 4.21104C9.45605 4.40419 9.38835 4.58944 9.26783 4.72604L6.37493 8.00397C6.25368 8.13666 6.0913 8.21008 5.92274 8.20842C5.75418 8.20676 5.59294 8.13016 5.47375 7.9951C5.35456 7.86004 5.28695 7.67734 5.28548 7.48635C5.28402 7.29536 5.34881 7.11136 5.46592 6.97397L7.20616 4.93947H1.09892C0.928423 4.93947 0.764907 4.86272 0.644346 4.72612C0.523785 4.58951 0.456055 4.40423 0.456055 4.21104C0.456055 4.01785 0.523785 3.83257 0.644346 3.69596C0.764907 3.55936 0.928423 3.48261 1.09892 3.48261H7.20616L5.46592 1.44811C5.3454 1.31151 5.27769 1.12626 5.27769 0.933108C5.27769 0.739954 5.3454 0.554709 5.46592 0.418108Z" fill="#DBAE84"/>
</svg>
