<svg width="74" height="65" viewBox="0 0 74 65" fill="none" xmlns="http://www.w3.org/2000/svg">
<path d="M7.05378 64.8889C5.18552 64.8889 3.62683 64.2643 2.37772 63.0152C1.12861 61.7661 0.502704 60.2061 0.5 58.3351V42.5833H28.8889V48.6667H45.1111V42.5833H73.5V58.3392C73.5 60.2047 72.8754 61.7621 71.6263 63.0112C70.3772 64.2603 68.8185 64.8862 66.9503 64.8889H7.05378ZM32.9444 44.6111V36.5H41.0556V44.6111H32.9444ZM0.5 38.5278V18.7205C0.5 16.8522 1.12591 15.2935 2.37772 14.0444C3.62954 12.7953 5.18687 12.1694 7.04972 12.1667H24.8333V6.54973C24.8333 4.68417 25.4592 3.12549 26.7111 1.87367C27.9629 0.62186 29.5216 -0.00269496 31.3871 8.74043e-06H42.6169C44.4825 8.74043e-06 46.0412 0.624564 47.293 1.87367C48.5448 3.12279 49.1694 4.68147 49.1667 6.54973V12.1667H66.9503C68.8158 12.1667 70.3732 12.7926 71.6223 14.0444C72.8714 15.2962 73.4973 16.8549 73.5 18.7205V38.5278H45.1111V32.4445H28.8889V38.5278H0.5ZM28.8889 12.1667H45.1111V6.54973C45.1111 5.92788 44.8516 5.35605 44.3324 4.83423C43.8133 4.31242 43.2415 4.05286 42.6169 4.05556H31.3831C30.7612 4.05556 30.1894 4.31512 29.6676 4.83423C29.1457 5.35334 28.8862 5.92517 28.8889 6.54973V12.1667Z" fill="#DBAE84"/>
</svg>
