<svg width="53" height="53" viewBox="0 0 53 53" fill="none" xmlns="http://www.w3.org/2000/svg">
<ellipse cx="26.4365" cy="26.3976" rx="25.9116" ry="25.9115" fill="white"/>
<path d="M35 33.8C35.7956 33.8 36.5587 34.0739 37.1213 34.5615C37.6839 35.0491 38 35.7104 38 36.4C38 37.0896 37.6839 37.7509 37.1213 38.2385C36.5587 38.7261 35.7956 39 35 39C34.2044 39 33.4413 38.7261 32.8787 38.2385C32.3161 37.7509 32 37.0896 32 36.4C32 34.957 33.335 33.8 35 33.8ZM11 13H15.905L17.315 15.6H39.5C39.8978 15.6 40.2794 15.737 40.5607 15.9808C40.842 16.2246 41 16.5552 41 16.9C41 17.121 40.925 17.342 40.82 17.55L35.45 25.961C34.94 26.754 33.95 27.3 32.825 27.3H21.65L20.3 29.419L20.255 29.575C20.255 29.6612 20.2945 29.7439 20.3648 29.8048C20.4352 29.8658 20.5305 29.9 20.63 29.9H38V32.5H20C19.2044 32.5 18.4413 32.2261 17.8787 31.7385C17.3161 31.2509 17 30.5896 17 29.9C17 29.445 17.135 29.016 17.36 28.652L19.4 25.467L14 15.6H11V13ZM20 33.8C20.7956 33.8 21.5587 34.0739 22.1213 34.5615C22.6839 35.0491 23 35.7104 23 36.4C23 37.0896 22.6839 37.7509 22.1213 38.2385C21.5587 38.7261 20.7956 39 20 39C19.2044 39 18.4413 38.7261 17.8787 38.2385C17.3161 37.7509 17 37.0896 17 36.4C17 34.957 18.335 33.8 20 33.8ZM33.5 24.7L37.67 18.2H18.71L22.25 24.7H33.5Z" fill="black"/>
</svg>
