<svg width="77" height="70" viewBox="0 0 77 70" fill="none" xmlns="http://www.w3.org/2000/svg">
<path d="M75.0511 46.4663C74.6432 45.9102 74.1295 45.4402 73.5395 45.0832C72.9494 44.7262 72.2947 44.4892 71.6128 44.386C70.931 44.2827 70.2355 44.3152 69.5662 44.4814C68.8969 44.6477 68.267 44.9446 67.7128 45.355L52.0114 56.9247H36.1867C35.6299 56.9247 35.0959 56.7035 34.7022 56.3098C34.3085 55.9161 34.0874 55.3822 34.0874 54.8254C34.0874 54.2686 34.3085 53.7347 34.7022 53.341C35.0959 52.9473 35.6299 52.7261 36.1867 52.7261H46.4522C48.5515 52.7261 50.4868 51.2999 50.8305 49.2347C50.932 48.6317 50.9008 48.0138 50.739 47.424C50.5773 46.8343 50.2889 46.2869 49.8939 45.82C49.499 45.3531 49.007 44.978 48.4523 44.7207C47.8975 44.4634 47.2933 44.3302 46.6818 44.3302H25.6889C22.1483 44.3295 18.7149 45.5455 15.9639 47.7744L9.86284 52.7261H2.59929C2.04369 52.7299 1.51192 52.9523 1.11905 53.3451C0.726169 53.738 0.503781 54.2698 0.5 54.8254V67.4211C0.503781 67.9767 0.726169 68.5085 1.11905 68.9014C1.51192 69.2943 2.04369 69.5167 2.59929 69.5204H48.1277C51.0397 69.5135 53.8743 68.5823 56.2231 66.8609L73.9398 53.7967C75.058 52.9711 75.803 51.7356 76.0114 50.3613C76.2197 48.987 75.8744 47.5862 75.0511 46.4663Z" fill="#DBAE84"/>
<path d="M51 0L35.5 10.1111V35H45.8333L50.8278 29.1667L56.1667 35H66.5V10.1111L51 0ZM43.9389 33.0556V21.3889L49.1056 27.2222L43.9389 33.0556ZM45.6611 19.4444H55.9944L50.8278 25.2778L45.6611 19.4444ZM57.7167 33.0556L52.55 27.2222L57.7167 21.3889V33.0556ZM56.1667 15.5556H45.4889V11.6667H56.1667V15.5556Z" fill="#DBAE84"/>
</svg>
