<svg width="74" height="73" viewBox="0 0 74 73" fill="none" xmlns="http://www.w3.org/2000/svg">
<path d="M73.5 45.6261V73.0011H37V45.6261H46.125V36.5011H64.375V45.6261H73.5ZM50.6875 45.6261H59.8125V41.0636H50.6875V45.6261ZM68.9375 59.3136H64.375V63.8761H59.8125V59.3136H50.6875V63.8761H46.125V59.3136H41.5625V68.4386H68.9375V59.3136ZM68.9375 50.1886H41.5625V54.7511H68.9375V50.1886ZM56.2837 31.9386C55.0005 30.4891 53.4797 29.3722 51.7212 28.588C49.9627 27.8038 48.0973 27.3999 46.125 27.3761C44.224 27.3761 42.4536 27.7326 40.814 28.4454C39.1743 29.1583 37.7248 30.1326 36.4653 31.3683C35.2059 32.604 34.2197 34.0654 33.5068 35.7526C32.7939 37.4398 32.4375 39.2101 32.4375 41.0636C32.4375 43.2498 31.9504 45.3053 30.9761 47.2301C30.0018 49.1549 28.6235 50.7708 26.8413 52.0778C27.9106 52.6243 28.9087 53.254 29.8354 53.9669C30.7622 54.6798 31.6296 55.4878 32.4375 56.3908V68.4386C32.4375 66.5613 32.0811 64.791 31.3682 63.1276C30.6553 61.4642 29.681 60.0146 28.4453 58.7789C27.2096 57.5433 25.7482 56.5571 24.061 55.8204C22.3739 55.0838 20.6035 54.7274 18.75 54.7511C16.849 54.7511 15.0786 55.1076 13.439 55.8204C11.7993 56.5333 10.3498 57.5076 9.09033 58.7433C7.83089 59.979 6.84473 61.4404 6.13184 63.1276C5.41895 64.8148 5.0625 66.5851 5.0625 68.4386H0.5C0.5 66.7039 0.73763 65.0286 1.21289 63.4127C1.68815 61.7968 2.3654 60.2641 3.24463 58.8146C4.12386 57.365 5.1932 56.0818 6.45264 54.965C7.71208 53.8481 9.11409 52.8857 10.6587 52.0778C8.90023 50.7946 7.53385 49.1906 6.55957 47.2658C5.58529 45.341 5.08626 43.2736 5.0625 41.0636C5.0625 39.1863 5.41895 37.416 6.13184 35.7526C6.84473 34.0892 7.81901 32.6396 9.05469 31.4039C10.2904 30.1683 11.7399 29.1821 13.4033 28.4454C15.0667 27.7088 16.849 27.3524 18.75 27.3761C20.9362 27.3761 22.9917 27.8633 24.9165 28.8375C26.8413 29.8118 28.4572 31.1901 29.7642 32.9723C30.6672 31.1901 31.8197 29.598 33.2217 28.1959C34.6237 26.7939 36.2277 25.6295 38.0337 24.7028C36.2752 23.4196 34.9089 21.8156 33.9346 19.8908C32.9603 17.966 32.4613 15.8986 32.4375 13.6886C32.4375 11.8113 32.7939 10.041 33.5068 8.37758C34.2197 6.71417 35.194 5.26462 36.4297 4.02895C37.6654 2.79327 39.1149 1.8071 40.7783 1.07045C42.4417 0.333796 44.224 -0.0226491 46.125 0.00111389C48.0023 0.00111389 49.7726 0.357559 51.436 1.07045C53.0994 1.78334 54.549 2.75762 55.7847 3.9933C57.0203 5.22898 58.0065 6.6904 58.7432 8.37758C59.4798 10.0648 59.8363 11.8351 59.8125 13.6886C59.8125 15.8748 59.3254 17.9303 58.3511 19.8551C57.3768 21.7799 55.9985 23.3958 54.2163 24.7028C55.8322 25.5107 57.2936 26.5206 58.6006 27.7326C59.9076 28.9445 61.0125 30.3465 61.9155 31.9386H56.2837ZM18.75 50.1886C20.0094 50.1886 21.1857 49.951 22.2788 49.4757C23.3719 49.0005 24.3462 48.347 25.2017 47.5153C26.0571 46.6836 26.7106 45.7212 27.1621 44.6281C27.6136 43.535 27.8512 42.3468 27.875 41.0636C27.875 39.8042 27.6374 38.6279 27.1621 37.5348C26.6868 36.4417 26.0334 35.4674 25.2017 34.612C24.37 33.7565 23.4076 33.103 22.3145 32.6515C21.2214 32.2 20.0332 31.9624 18.75 31.9386C17.4906 31.9386 16.3143 32.1762 15.2212 32.6515C14.1281 33.1268 13.1538 33.7802 12.2983 34.612C11.4429 35.4437 10.7894 36.4061 10.3379 37.4992C9.88639 38.5923 9.64876 39.7804 9.625 41.0636C9.625 42.3231 9.86263 43.4993 10.3379 44.5924C10.8132 45.6855 11.4666 46.6598 12.2983 47.5153C13.13 48.3707 14.0924 49.0242 15.1855 49.4757C16.2786 49.9272 17.4668 50.1649 18.75 50.1886ZM37 13.6886C37 14.9481 37.2376 16.1243 37.7129 17.2174C38.1882 18.3105 38.8416 19.2848 39.6733 20.1403C40.505 20.9957 41.4674 21.6492 42.5605 22.1007C43.6536 22.5522 44.8418 22.7899 46.125 22.8136C47.3844 22.8136 48.5607 22.576 49.6538 22.1007C50.7469 21.6255 51.7212 20.972 52.5767 20.1403C53.4321 19.3086 54.0856 18.3462 54.5371 17.2531C54.9886 16.16 55.2262 14.9718 55.25 13.6886C55.25 12.4292 55.0124 11.2529 54.5371 10.1598C54.0618 9.06671 53.4084 8.09242 52.5767 7.23695C51.745 6.38148 50.7826 5.728 49.6895 5.2765C48.5964 4.82501 47.4082 4.58738 46.125 4.56361C44.8656 4.56361 43.6893 4.80124 42.5962 5.2765C41.5031 5.75176 40.5288 6.40525 39.6733 7.23695C38.8179 8.06866 38.1644 9.03106 37.7129 10.1242C37.2614 11.2173 37.0238 12.4054 37 13.6886Z" fill="#BC6949"/>
</svg>
