<svg width="31" height="36" viewBox="0 0 31 36" fill="none" xmlns="http://www.w3.org/2000/svg">
<path d="M29.5714 5.14286H21.8571V3.21429C21.8571 2.3618 21.5185 1.54424 20.9157 0.941442C20.3129 0.338647 19.4953 0 18.6429 0H12.2143C11.3618 0 10.5442 0.338647 9.94144 0.941442C9.33865 1.54424 9 2.3618 9 3.21429V5.14286H1.28571C0.944722 5.14286 0.617695 5.27832 0.376577 5.51943C0.135459 5.76055 0 6.08758 0 6.42857C0 6.76956 0.135459 7.09659 0.376577 7.33771C0.617695 7.57883 0.944722 7.71429 1.28571 7.71429H2.65179L4.17857 32.2168C4.29268 34.3744 5.94643 36 8.03571 36H22.8214C24.9212 36 26.542 34.4105 26.6786 32.2232L28.2054 7.71429H29.5714C29.9124 7.71429 30.2394 7.57883 30.4806 7.33771C30.7217 7.09659 30.8571 6.76956 30.8571 6.42857C30.8571 6.08758 30.7217 5.76055 30.4806 5.51943C30.2394 5.27832 29.9124 5.14286 29.5714 5.14286ZM10.3315 30.8571H10.2857C9.95251 30.8574 9.63224 30.7282 9.3924 30.4969C9.15255 30.2656 9.01187 29.9502 9 29.6172L8.35714 11.6172C8.34499 11.2762 8.4688 10.9444 8.70133 10.6947C8.93386 10.445 9.25606 10.2979 9.59705 10.2857C9.93805 10.2736 10.2699 10.3974 10.5196 10.6299C10.7693 10.8624 10.9164 11.1846 10.9286 11.5256L11.5714 29.5256C11.5776 29.6945 11.5503 29.8629 11.4913 30.0213C11.4323 30.1796 11.3426 30.3247 11.2275 30.4484C11.1123 30.5721 10.9739 30.6718 10.8202 30.742C10.6664 30.8121 10.5004 30.8512 10.3315 30.8571ZM16.7143 29.5714C16.7143 29.9124 16.5788 30.2394 16.3377 30.4806C16.0966 30.7217 15.7696 30.8571 15.4286 30.8571C15.0876 30.8571 14.7606 30.7217 14.5194 30.4806C14.2783 30.2394 14.1429 29.9124 14.1429 29.5714V11.5714C14.1429 11.2304 14.2783 10.9034 14.5194 10.6623C14.7606 10.4212 15.0876 10.2857 15.4286 10.2857C15.7696 10.2857 16.0966 10.4212 16.3377 10.6623C16.5788 10.9034 16.7143 11.2304 16.7143 11.5714V29.5714ZM19.2857 5.14286H11.5714V3.21429C11.5705 3.1296 11.5864 3.04557 11.6184 2.96713C11.6504 2.8887 11.6977 2.81745 11.7576 2.75756C11.8174 2.69767 11.8887 2.65035 11.9671 2.61839C12.0456 2.58643 12.1296 2.57046 12.2143 2.57143H18.6429C18.7275 2.57046 18.8116 2.58643 18.89 2.61839C18.9684 2.65035 19.0397 2.69767 19.0996 2.75756C19.1595 2.81745 19.2068 2.8887 19.2388 2.96713C19.2707 3.04557 19.2867 3.1296 19.2857 3.21429V5.14286ZM21.8571 29.6172C21.8453 29.9502 21.7046 30.2656 21.4647 30.4969C21.2249 30.7282 20.9046 30.8574 20.5714 30.8571H20.5248C20.356 30.8511 20.19 30.8119 20.0364 30.7417C19.8828 30.6716 19.7444 30.5718 19.6294 30.4481C19.5143 30.3245 19.4247 30.1794 19.3658 30.0211C19.3068 29.8628 19.2796 29.6944 19.2857 29.5256L19.9286 11.5256C19.9346 11.3568 19.9738 11.1908 20.044 11.0371C20.1141 10.8834 20.2139 10.745 20.3375 10.6299C20.4612 10.5148 20.6063 10.4251 20.7646 10.3661C20.9229 10.307 21.0912 10.2797 21.2601 10.2857C21.4289 10.2917 21.5949 10.3309 21.7486 10.4011C21.9023 10.4713 22.0407 10.571 22.1558 10.6947C22.2709 10.8183 22.3606 10.9634 22.4197 11.1217C22.4787 11.28 22.506 11.4484 22.5 11.6172L21.8571 29.6172Z" fill="#F8F8F8"/>
</svg>
